<?xml version="1.0" encoding="utf-8"?>
<!-- Generator: Adobe Illustrator 13.0.1, SVG Export Plug-In  -->
<!DOCTYPE svg PUBLIC "-//W3C//DTD SVG 1.1//EN" "http://www.w3.org/Graphics/SVG/1.1/DTD/svg11.dtd" [
	<!ENTITY ns_flows "http://ns.adobe.com/Flows/1.0/">
]>
<svg version="1.1"
	 xmlns="http://www.w3.org/2000/svg" xmlns:xlink="http://www.w3.org/1999/xlink" xmlns:a="http://ns.adobe.com/AdobeSVGViewerExtensions/3.0/"
	 x="0px" y="0px" width="616px" height="115px" viewBox="-5 -4.999 616 115" enable-background="new -5 -4.999 616 115"
	 xml:space="preserve">
<defs>
</defs>
<polygon fill="#1A171B" points="294.089,54.908 323.796,54.908 323.796,49.26 294.089,49.26 294.089,30.627 325.393,30.627 
	325.393,24.775 286.95,24.775 286.95,80.889 326.032,80.889 326.032,75.026 294.089,75.026 "/>
<path fill="#1A171B" d="M257.886,24.775h-25.66v56.114h7.021v-50.36h16.83c9.687,0,14.161,3.618,14.161,12.771
	c0,7.668-2.874,12.142-15.441,12.142c-4.044,0-12.672-0.533-12.672-0.533l4.578,5.751c0,0,5.328,0.422,9.057,0.422
	c16.179,0,21.828-7.989,21.828-18.526C277.586,30.948,271.088,24.775,257.886,24.775z"/>
<path fill="#1A171B" d="M142.245,49.26c-8.73-1.805-16.402-3.299-16.402-10.649c0-6.387,5.751-8.625,15.552-8.625
	c7.986,0,17.038,1.383,17.038,1.383l0.851-5.534c0,0-7.458-1.699-17.465-1.699c-14.484,0-23.004,3.939-23.004,14.911
	c0,12.453,10.866,14.372,22.581,16.815c8.625,1.816,14.583,3.094,14.583,10.441c0,7.025-5.004,9.264-15.542,9.264
	c-9.048,0-19.597-1.813-19.597-1.813l-0.741,5.968c0,0,10.005,1.708,19.27,1.708c17.892,0,23.745-5.751,23.745-16.087
	C163.113,53.522,155.13,51.929,142.245,49.26z"/>
<path fill="#1A171B" d="M212.522,57.882c0,11.824-5.213,17.892-16.289,17.892c-10.012,0-16.617-5.007-16.617-17.563V24.775h-7.131
	v34.601c0,13.737,7.563,22.052,23.426,22.052c19.809,0,23.745-12.683,23.745-24.387V24.775h-7.134V57.882z"/>
<path fill="#1A171B" d="M380.867,40.531c0-10.002-6.387-15.756-22.257-15.756h-21.823v56.114h7.131v-50.36h13.737
	c12.99,0,15.759,4.46,15.759,10.853c0,6.601-2.977,10.649-12.565,10.649H353.5l21.404,28.857h8.944l-19.383-24.281
	C375.863,55.652,380.867,49.26,380.867,40.531z"/>
<polygon fill="#1A171B" points="505.985,60.015 521.533,60.015 521.533,80.889 534.523,80.889 534.523,49.157 505.985,49.157 "/>
<path fill="#1A171B" d="M581.058,24.558h-15.226L541.34,80.889h13.948l4.046-9.583h27.472l4.26,9.583H606.3L581.058,24.558z
	 M563.375,61.298l9.592-24.914l9.899,24.914H563.375z"/>
<polygon fill="#1A171B" points="410.899,24.775 397.909,24.775 397.909,80.889 443.697,80.889 443.697,69.598 410.899,69.598 "/>
<path fill="#1A171B" d="M488.521,52.884c0-11.606,8.306-17.147,22.043-17.147c9.372,0,18.85,2.344,18.85,2.344l1.488-11.178
	c0,0-7.881-2.665-20.657-2.665c-19.907,0-34.922,9.264-34.922,29.602c0,16.289,10.216,27.372,26.616,27.372
	c4.046,0,7.881-0.639,7.881-0.639l8.628-12.788c0,0-7.245,2.03-12.674,2.03C497.357,69.814,488.521,64.919,488.521,52.884z"/>
<rect x="453.168" y="24.778" fill="#1A171B" width="13.104" height="56.111"/>
<polygon fill="#1A171B" points="58.958,0 33.321,11.199 50.459,33.42 "/>
<polygon fill="#1A171B" points="50.459,84.264 5.975,104.813 103.973,86.865 0,18.595 "/>
</svg>
